PathFileType	4	(x/y/z)	S01_P20_T24
DataRate	CameraRate	NumFrames	NumMarkers	Units	OrigDataRate	OrigDataStartFrame	OrigNumFrames
240	240	4	51	mm	240	1	400
Frame#	Time	Sternum			R.Acromium			L.Acromium			Top.Head			R.ASIS			L.ASIS			R.PSIS			L.PSIS			R.Great.Tro			L.Great.Tro			R.Iliac.Crest			L.Iliac.Crest			V.Sacral			R.Thigh.Upper.Post			R.Thigh.Lower.Ant			R.Thigh.Lower.Post			R.Thigh.Upper.Ant			R.Knee.Lat			R.Knee.Med			R.Shank.Upper.Post			R.Shank.Lower.Ant			R.Shank.Lower.Post			R.Shank.Upper.Ant			R.Ankle.Lat			R.Ankle.Med			R.Heel.Upper			R.Heel.Med			R.Heel.Lat			R.Toe.Lat			R.Toe.Med			R.Toe.Tip			L.Thigh.Upper.Post			L.Thigh.Lower.Ant			L.Thigh.Lower.Post			L.Thigh.Upper.Ant			L.Knee.Lat			L.Knee.Med			L.Shank.Upper.Post			L.Shank.Lower.Ant			L.Shank.Lower.Post			L.Shank.Upper.Ant			L.Ankle.Lat			L.Ankle.Med			L.Heel.Upper			L.Heel.Med			L.Heel.Lat			L.Toe.Lat			L.Toe.Med			L.Toe.Tip			Cervical.Spine			Back			
		X1	Y1	Z1	X2	Y2	Z2	X3	Y3	Z3	X4	Y4	Z4	X5	Y5	Z5	X6	Y6	Z6	X7	Y7	Z7	X8	Y8	Z8	X9	Y9	Z9	X10	Y10	Z10	X11	Y11	Z11	X12	Y12	Z12	X13	Y13	Z13	X14	Y14	Z14	X15	Y15	Z15	X16	Y16	Z16	X17	Y17	Z17	X18	Y18	Z18	X19	Y19	Z19	X20	Y20	Z20	X21	Y21	Z21	X22	Y22	Z22	X23	Y23	Z23	X24	Y24	Z24	X25	Y25	Z25	X26	Y26	Z26	X27	Y27	Z27	X28	Y28	Z28	X29	Y29	Z29	X30	Y30	Z30	X31	Y31	Z31	X32	Y32	Z32	X33	Y33	Z33	X34	Y34	Z34	X35	Y35	Z35	X36	Y36	Z36	X37	Y37	Z37	X38	Y38	Z38	X39	Y39	Z39	X40	Y40	Z40	X41	Y41	Z41	X42	Y42	Z42	X43	Y43	Z43	X44	Y44	Z44	X45	Y45	Z45	X46	Y46	Z46	X47	Y47	Z47	X48	Y48	Z48	X49	Y49	Z49	X50	Y50	Z50	X51	Y51	Z51	

1	0	NaN	NaN	NaN	-1399.5	1519.8	495.34	-1468.6	1543.1	171.73	-1399.5	1847.3	331.82	NaN	NaN	NaN	NaN	NaN	NaN	-1598.2	1069.2	365.96	-1601.2	1064.4	263.05	-1446.8	961.13	534.19	-1465.7	976.78	107.78	-1433.5	1107.5	525.06	-1473.4	1105.4	120.44	-1613.5	1030.6	313.29	-1531.5	671.66	510.84	NaN	NaN	NaN	-1550.5	586.2	493.79	-1456.7	671.16	505.83	-1549	515.2	486.9	NaN	NaN	NaN	-1662.9	387.87	505.65	NaN	NaN	NaN	-1693.7	325.15	494.48	-1612.5	352.57	485.21	-1774.1	134.16	460.84	-1733.3	128.16	369.94	-1841.1	111.46	397.87	-1828.5	77.799	371.87	-1840.5	81.091	434.76	NaN	NaN	NaN	-1617.7	47.601	387.75	NaN	NaN	NaN	-1387.1	692.29	121.86	-1282	657.51	115.66	-1343.8	613.47	140.15	-1334.7	735.45	96.816	-1263.8	557.32	125.99	-1237.3	563.62	267.82	-1290.2	414.58	106.11	-1211.2	336.92	126.17	-1273.7	337.41	107.19	-1224.3	412.69	118.95	-1245	119.97	139.52	-1216	138.24	234.54	-1300.7	68.363	190.12	-1282.4	47.936	223.05	-1287.1	46.353	160.6	-1085.7	87.438	114.77	-1058.2	107.95	233.49	-1004.9	135.94	178.1	-1522.3	1588.4	351.62	-1605.8	1278.5	366.66
2	0.0041667	NaN	NaN	NaN	-1395.2	1518.7	494.45	-1463.9	1542.1	170.69	-1394.8	1846.4	331.01	NaN	NaN	NaN	NaN	NaN	NaN	-1593.2	1068.1	364.93	-1596	1063.1	262.03	-1441.9	960.46	533.63	-1460	975.38	107.26	-1429.2	1106.6	524.4	-1468.4	1104.1	119.6	-1608.3	1029.3	312.28	-1526.9	671.13	510.66	NaN	NaN	NaN	-1545.6	585.52	493.8	-1451.6	670.57	505.74	-1545.2	514.82	487.29	-1534.2	512.18	342.4	-1659.3	388.31	505.82	NaN	NaN	NaN	-1690.7	325.81	494.66	-1609	352.46	485.43	-1772.5	135.31	461.03	-1732.7	129.55	370.25	-1840.3	113.6	398.16	-1827.9	79.953	372.02	-1839.9	83.129	434.94	NaN	NaN	NaN	-1617.4	47.567	387.88	NaN	NaN	NaN	-1381.8	691.1	121.79	-1276.9	656.07	116.01	-1338.7	612.15	140.09	-1329.2	734.22	97.195	-1259.2	555.56	126.33	-1232.8	562.17	267.87	-1286.3	412.97	106.65	-1207.7	334.89	126.86	-1270.2	335.71	107.81	-1220.4	410.74	119.64	-1242.7	118.53	140.15	-1214	136.43	235.37	-1299.2	67.809	190.57	-1281.2	47.192	223.51	-1285.7	45.674	161.06	-1083.8	84.56	116.06	-1056.6	104.69	234.93	-1002.9	132.2	179.73	-1517.9	1587.4	350.54	-1601.1	1277.3	365.49
3	0.0083333	NaN	NaN	NaN	-1390.8	1517.7	493.51	-1459	1541	169.59	-1389.9	1845.4	330.15	NaN	NaN	NaN	NaN	NaN	NaN	-1587.9	1066.9	363.86	-1590.5	1061.7	260.97	-1436.9	959.76	533.05	-1454.1	973.94	106.7	-1424.7	1105.8	523.7	-1463.1	1102.7	118.7	-1602.9	1028	311.23	-1522	670.56	510.48	NaN	NaN	NaN	-1540.5	584.81	493.82	-1446.3	669.96	505.65	-1541.1	514.4	487.71	-1528.9	511.13	342.76	-1655.5	388.78	506	NaN	NaN	NaN	-1687.4	326.53	494.85	-1605.3	352.36	485.69	-1770.9	136.57	461.24	-1731.9	131.03	370.6	-1839.3	115.92	398.45	-1827.3	82.284	372.18	-1839.4	85.338	435.13	NaN	NaN	NaN	-1617.1	47.53	388.01	NaN	NaN	NaN	-1376.3	689.86	121.73	-1271.6	654.59	116.36	-1333.5	610.78	140.04	-1323.5	732.93	97.565	-1254.4	553.76	126.69	-1228.2	560.67	267.96	-1282.1	411.33	107.21	-1204.1	332.81	127.57	-1266.6	333.99	108.43	-1216.3	408.76	120.36	-1240.3	117.09	140.77	-1212	134.6	236.19	-1297.6	67.308	191	-1280.1	46.485	223.96	-1284.4	45.034	161.5	-1082	81.577	117.33	-1055	101.27	236.37	-1000.7	128.25	181.36	-1513.3	1586.3	349.39	-1596.3	1276	364.27
4	0.0125	NaN	NaN	NaN	-1386.2	1516.7	492.54	-1453.9	1539.9	168.44	-1384.9	1844.4	329.25	NaN	NaN	NaN	NaN	NaN	NaN	-1582.5	1065.7	362.76	-1584.9	1060.4	259.88	-1431.6	959.04	532.45	-1447.9	972.49	106.12	-1419.9	1105	522.98	-1457.5	1101.4	117.77	-1597.2	1026.7	310.15	-1516.9	669.96	510.31	NaN	NaN	NaN	-1535.1	584.06	493.86	-1440.8	669.34	505.57	-1536.8	513.96	488.17	-1523.3	510.03	343.16	-1651.5	389.29	506.19	NaN	NaN	NaN	-1684	327.3	495.06	-1601.3	352.28	485.99	-1769.2	137.95	461.46	-1731.1	132.6	370.97	-1838.3	118.42	398.76	-1826.5	84.8	372.33	-1838.7	87.726	435.31	NaN	NaN	NaN	-1616.8	47.491	388.14	NaN	NaN	NaN	-1370.7	688.59	121.68	-1266.2	653.05	116.7	-1328.1	609.37	140.01	-1317.7	731.6	97.919	-1249.5	551.93	127.06	-1223.4	559.15	268.07	-1277.7	409.71	107.76	-1200.3	330.73	128.31	-1262.8	332.28	109.05	-1212.1	406.76	121.09	-1237.9	115.67	141.38	-1209.9	132.76	237.02	-1296	66.88	191.41	-1279	45.834	224.38	-1283	44.455	161.93	-1080.1	78.515	118.58	-1053.3	97.727	237.79	-998.57	124.12	182.98	-1508.6	1585.2	348.18	-1591.2	1274.7	362.99
